# xmcd
#
# Track frame offsets:
#	150
#	14517
#	30367
#	42289
#	57670
#	69465
#	81760
#	93432
#	103237
#	119450
#	134555
#	147097
#
# Disc length: 2130 seconds
#
# Revision: 1
# Processed by: cddbd v1.5.2PL0 Copyright (c) Steve Scherf et al.
# Submitted via: audiograbber 1.83.01
#
DISCID=a908500c
DTITLE=Barry Berrier - First Time With Feeling
DYEAR=1996
DGENRE=Country
TTITLE0=I'll Have To Make Some Changes
TTITLE1=Woody Lady
TTITLE2=Let Old Mother Nature Have Her Way
TTITLE3=She's Holding These Lonely Hands Of Mine
TTITLE4=In Half The Time It Takes To Cry
TTITLE5=Honky Tonk Girl
TTITLE6=You're Right, I'm Wrong, I'm Sorry
TTITLE7=Man With The Blues
TTITLE8=I Keep Puttin' Off Getting Over You
TTITLE9=When My Heart Hurts No More
TTITLE10=If Only Dreams Come True
TTITLE11=High Steel and Memories
EXTD=
EXTT0=
EXTT1=
EXTT2=
EXTT3=
EXTT4=
EXTT5=
EXTT6=
EXTT7=
EXTT8=
EXTT9=
EXTT10=
EXTT11=
PLAYORDER=
